<svg width="29" height="28" viewBox="0 0 29 28" fill="none" xmlns="http://www.w3.org/2000/svg">
<path d="M0.610198 14.6815L4.36231 18.131C5.26348 18.9581 6.35918 18.3246 6.35918 17.2312V14.9641H12.6058V21.2299H10.3227C9.24739 21.2299 8.61598 22.3202 9.41871 23.2045L12.8683 26.9587C13.427 27.5789 14.2727 27.5829 14.8248 26.9597L18.2648 23.215C19.0919 22.3139 18.4584 21.2299 17.365 21.2299H15.1V14.9641H21.3348V17.2312C21.3348 18.3246 22.4188 18.9581 23.3296 18.131L27.0742 14.6911C27.6878 14.1293 27.6838 13.2933 27.0733 12.7345L23.3191 9.28498C22.4252 8.48224 21.3348 9.11365 21.3348 10.189V12.4699H15.1V6.19661H17.365C18.4584 6.19661 19.0919 5.11052 18.2648 4.20935L14.8152 0.457245C14.2534 -0.175563 13.4078 -0.135252 12.8587 0.477401L9.41871 4.22201C8.61598 5.1063 9.24739 6.19661 10.3227 6.19661H12.6058V12.4699H6.35918V10.189C6.35918 9.11365 5.25926 8.48224 4.37497 9.28498L0.630354 12.7249C0.0273113 13.274 -0.0130006 14.1101 0.610198 14.6815Z" fill="#91A3B0"/>
</svg>
