<svg width="28" height="28" viewBox="0 0 28 28" fill="none" xmlns="http://www.w3.org/2000/svg">
<path d="M22.2662 14.5787L13.6212 23.2236C11.4188 25.4377 8.45771 25.2298 6.56537 23.3141C4.6592 21.4217 4.45341 18.4819 6.65795 16.2678L18.4899 4.44548C19.7848 3.15266 21.7083 2.92298 22.97 4.17712C24.2262 5.45259 23.9944 7.36228 22.7091 8.6572L11.1045 20.2681C10.5851 20.8046 9.95584 20.6478 9.59748 20.2916C9.24334 19.9257 9.09615 19.3156 9.61342 18.777L17.7146 10.6972C18.121 10.2791 18.1423 9.67907 17.7476 9.2865C17.3551 8.90564 16.7529 8.92486 16.3465 9.33126L8.21983 17.458C6.96546 18.7123 7.01866 20.6417 8.1303 21.7512C9.33991 22.9608 11.1671 22.9353 12.4311 21.6713L24.091 10.0114C26.3541 7.74829 26.273 4.76634 24.2848 2.77814C22.3435 0.838924 19.3126 0.708846 17.0494 2.96986L5.15256 14.8827C2.18843 17.8468 2.39843 22.1059 5.08975 24.7993C7.78529 27.481 12.0444 27.6931 15.0085 24.7386L23.7162 16.0309C24.1088 15.6446 24.1046 14.9244 23.7003 14.5552C23.314 14.1413 22.6726 14.1861 22.2662 14.5787Z" fill="#40BA21"/>
</svg>
