<svg width="28" height="28" viewBox="0 0 28 28" fill="none" xmlns="http://www.w3.org/2000/svg">
<path d="M22.2662 14.5788L13.6212 23.2237C11.4188 25.4378 8.45771 25.2299 6.56537 23.3142C4.6592 21.4218 4.45341 18.482 6.65795 16.2679L18.4899 4.4456C19.7848 3.15278 21.7083 2.9231 22.97 4.17724C24.2262 5.45271 23.9944 7.3624 22.7091 8.65732L11.1045 20.2682C10.5851 20.8047 9.95584 20.6479 9.59748 20.2917C9.24334 19.9258 9.09615 19.3157 9.61342 18.7771L17.7146 10.6973C18.121 10.2792 18.1423 9.67919 17.7476 9.28662C17.3551 8.90576 16.7529 8.92498 16.3465 9.33138L8.21983 17.4581C6.96546 18.7124 7.01866 20.6418 8.1303 21.7513C9.33991 22.9609 11.1671 22.9354 12.4311 21.6714L24.091 10.0115C26.3541 7.74841 26.273 4.76646 24.2848 2.77826C22.3435 0.839046 19.3126 0.708968 17.0494 2.96998L5.15256 14.8828C2.18843 17.8469 2.39843 22.106 5.08975 24.7994C7.78529 27.4811 12.0444 27.6932 15.0085 24.7387L23.7162 16.031C24.1088 15.6447 24.1046 14.9245 23.7003 14.5553C23.314 14.1414 22.6726 14.1862 22.2662 14.5788Z" fill="#40BA21"/>
</svg>
