<svg width="28" height="29" viewBox="0 0 28 29" fill="none" xmlns="http://www.w3.org/2000/svg">
<path d="M22.2662 15.0787L13.6212 23.7236C11.4188 25.9377 8.45771 25.7298 6.56537 23.8141C4.6592 21.9217 4.45341 18.9819 6.65795 16.7678L18.4899 4.94548C19.7848 3.65266 21.7083 3.42298 22.97 4.67712C24.2262 5.95259 23.9944 7.86228 22.7091 9.1572L11.1045 20.7681C10.5851 21.3046 9.95584 21.1478 9.59748 20.7916C9.24334 20.4257 9.09615 19.8156 9.61342 19.277L17.7146 11.1972C18.121 10.7791 18.1423 10.1791 17.7476 9.7865C17.3551 9.40564 16.7529 9.42486 16.3465 9.83126L8.21983 17.958C6.96546 19.2123 7.01866 21.1417 8.1303 22.2512C9.33991 23.4608 11.1671 23.4353 12.4311 22.1713L24.091 10.5114C26.3541 8.24829 26.273 5.26634 24.2848 3.27814C22.3435 1.33892 19.3126 1.20885 17.0494 3.46986L5.15256 15.3827C2.18843 18.3468 2.39843 22.6059 5.08975 25.2993C7.78529 27.981 12.0444 28.1931 15.0085 25.2386L23.7162 16.5309C24.1088 16.1446 24.1046 15.4244 23.7003 15.0552C23.314 14.6413 22.6726 14.6861 22.2662 15.0787Z" fill="#40BA21"/>
</svg>
