<svg width="28" height="28" viewBox="0 0 28 28" fill="none" xmlns="http://www.w3.org/2000/svg">
<path d="M8.55365 19.3801C8.91057 19.7439 9.53099 19.731 9.87736 19.3861L13.9552 15.3L18.0383 19.3831C18.3907 19.7356 18.9967 19.7424 19.3536 19.3786C19.7243 19.0149 19.7174 18.4089 19.3581 18.0564L15.2834 13.9718L19.3581 9.89699C19.7174 9.54309 19.7243 8.9302 19.3536 8.57479C18.9967 8.21101 18.3907 8.21788 18.0383 8.56877L13.9552 12.6504L9.87736 8.56726C9.53099 8.22089 8.91057 8.20951 8.55365 8.57178C8.19138 8.9287 8.20276 9.54912 8.54913 9.89548L12.6353 13.9718L8.54913 18.0579C8.20276 18.4043 8.19138 19.0164 8.55365 19.3801Z" fill="#91A3B0"/>
</svg>
