<svg width="20" height="20" viewBox="0 0 20 20" fill="none" xmlns="http://www.w3.org/2000/svg">
<path d="M4.55365 15.3801C4.91057 15.7439 5.53099 15.731 5.87736 15.3861L9.95516 11.3L14.0383 15.3831C14.3907 15.7356 14.9967 15.7424 15.3536 15.3786C15.7243 15.0149 15.7174 14.4089 15.3581 14.0564L11.2834 9.97178L15.3581 5.89699C15.7174 5.54309 15.7243 4.9302 15.3536 4.57479C14.9967 4.21101 14.3907 4.21788 14.0383 4.56877L9.95516 8.65042L5.87736 4.56726C5.53099 4.22089 4.91057 4.20951 4.55365 4.57178C4.19138 4.9287 4.20276 5.54912 4.54913 5.89548L8.6353 9.97178L4.54913 14.0579C4.20276 14.4043 4.19138 15.0164 4.55365 15.3801Z" fill="white"/>
</svg>
