<svg width="20" height="20" viewBox="0 0 20 20" fill="none" xmlns="http://www.w3.org/2000/svg">
<path d="M4.55365 15.3801C4.91057 15.7439 5.53099 15.7309 5.87736 15.3861L9.95516 11.2999L14.0383 15.3831C14.3907 15.7355 14.9967 15.7424 15.3536 15.3786C15.7243 15.0148 15.7174 14.4088 15.3581 14.0564L11.2834 9.97171L15.3581 5.89693C15.7174 5.54303 15.7243 4.93014 15.3536 4.57473C14.9967 4.21095 14.3907 4.21782 14.0383 4.56871L9.95516 8.65036L5.87736 4.5672C5.53099 4.22083 4.91057 4.20944 4.55365 4.57172C4.19138 4.92864 4.20276 5.54906 4.54913 5.89542L8.6353 9.97171L4.54913 14.0579C4.20276 14.4042 4.19138 15.0163 4.55365 15.3801Z" fill="white"/>
</svg>
