<svg width="28" height="28" viewBox="0 0 28 28" fill="none" xmlns="http://www.w3.org/2000/svg">
<path d="M8.55365 19.3801C8.91057 19.7439 9.53099 19.7309 9.87736 19.3861L13.9552 15.2999L18.0383 19.3831C18.3907 19.7355 18.9967 19.7424 19.3536 19.3786C19.7243 19.0148 19.7174 18.4088 19.3581 18.0564L15.2834 13.9717L19.3581 9.89693C19.7174 9.54303 19.7243 8.93014 19.3536 8.57473C18.9967 8.21095 18.3907 8.21782 18.0383 8.56871L13.9552 12.6504L9.87736 8.5672C9.53099 8.22083 8.91057 8.20944 8.55365 8.57172C8.19138 8.92864 8.20276 9.54906 8.54913 9.89542L12.6353 13.9717L8.54913 18.0579C8.20276 18.4042 8.19138 19.0163 8.55365 19.3801Z" fill="#91A3B0"/>
</svg>
