<svg width="28" height="28" viewBox="0 0 28 28" fill="none" xmlns="http://www.w3.org/2000/svg">
<path d="M8.55365 19.3796C8.91057 19.7434 9.53099 19.7305 9.87736 19.3856L13.9552 15.2995L18.0383 19.3826C18.3907 19.735 18.9967 19.7419 19.3536 19.3781C19.7243 19.0143 19.7174 18.4083 19.3581 18.0559L15.2834 13.9712L19.3581 9.89644C19.7174 9.54254 19.7243 8.92965 19.3536 8.57424C18.9967 8.21046 18.3907 8.21733 18.0383 8.56822L13.9552 12.6499L9.87736 8.56671C9.53099 8.22034 8.91057 8.20896 8.55365 8.57123C8.19138 8.92815 8.20276 9.54857 8.54913 9.89493L12.6353 13.9712L8.54913 18.0574C8.20276 18.4037 8.19138 19.0158 8.55365 19.3796Z" fill="#91A3B0"/>
</svg>
