<svg width="28" height="28" viewBox="0 0 28 28" fill="none" xmlns="http://www.w3.org/2000/svg">
<path d="M8.55365 19.3802C8.91057 19.744 9.53099 19.7311 9.87736 19.3862L13.9552 15.3001L18.0383 19.3832C18.3907 19.7356 18.9967 19.7425 19.3536 19.3787C19.7243 19.0149 19.7174 18.4089 19.3581 18.0565L15.2834 13.9718L19.3581 9.89705C19.7174 9.54315 19.7243 8.93026 19.3536 8.57485C18.9967 8.21107 18.3907 8.21794 18.0383 8.56883L13.9552 12.6505L9.87736 8.56732C9.53099 8.22095 8.91057 8.20957 8.55365 8.57184C8.19138 8.92876 8.20276 9.54918 8.54913 9.89554L12.6353 13.9718L8.54913 18.058C8.20276 18.4044 8.19138 19.0164 8.55365 19.3802Z" fill="#91A3B0"/>
</svg>
