<svg width="20" height="20" viewBox="0 0 20 20" fill="none" xmlns="http://www.w3.org/2000/svg">
<path d="M8.51816 17.7787C8.95343 17.7787 9.29679 17.5971 9.53534 17.2331L17.4033 4.9676C17.5796 4.69171 17.6502 4.46085 17.6502 4.23368C17.6502 3.65729 17.245 3.25952 16.6625 3.25952C16.2494 3.25952 16.0095 3.39847 15.7588 3.79189L8.48468 15.3483L4.73618 10.5285C4.49226 10.2054 4.2363 10.0701 3.87469 10.0701C3.27704 10.0701 2.85718 10.4885 2.85718 11.0663C2.85718 11.3146 2.94992 11.5654 3.15868 11.8191L7.49546 17.245C7.78424 17.6061 8.09646 17.7787 8.51816 17.7787Z" fill="white"/>
</svg>
