<svg width="20" height="20" viewBox="0 0 20 20" fill="none" xmlns="http://www.w3.org/2000/svg">
<path d="M8.51816 17.7788C8.95343 17.7788 9.29679 17.5972 9.53534 17.2333L17.4033 4.96772C17.5796 4.69183 17.6502 4.46097 17.6502 4.2338C17.6502 3.65741 17.245 3.25964 16.6625 3.25964C16.2494 3.25964 16.0095 3.39859 15.7588 3.79201L8.48468 15.3484L4.73618 10.5286C4.49226 10.2055 4.2363 10.0703 3.87469 10.0703C3.27704 10.0703 2.85718 10.4886 2.85718 11.0665C2.85718 11.3148 2.94992 11.5655 3.15868 11.8192L7.49546 17.2451C7.78424 17.6063 8.09646 17.7788 8.51816 17.7788Z" fill="white"/>
</svg>
