<svg width="29" height="28" viewBox="0 0 29 28" fill="none" xmlns="http://www.w3.org/2000/svg">
<path d="M8.33078 26.4436H19.1022C20.8961 26.4436 22.0612 25.3453 22.1453 23.5493L22.9392 6.66631H24.2357C24.8132 6.66631 25.2632 6.20764 25.2632 5.63015C25.2632 5.05687 24.8132 4.60781 24.2357 4.60781H3.19726C2.62937 4.60781 2.16016 5.05687 2.16016 5.63015C2.16016 6.21725 2.62937 6.66631 3.19726 6.66631H4.49383L5.28766 23.5589C5.37391 25.3549 6.51766 26.4436 8.33078 26.4436ZM8.56234 24.3703C7.91335 24.3703 7.44952 23.8917 7.41647 23.2003L6.61936 6.66631H20.7635L20.0069 23.2003C19.9835 23.9034 19.5196 24.3703 18.8514 24.3703H8.56234ZM10.2608 22.4761C10.7547 22.4761 11.073 22.1632 11.0612 21.7024L10.7022 9.41647C10.6883 8.95991 10.3658 8.65663 9.89335 8.65663C9.40375 8.65663 9.08758 8.96952 9.09929 9.42819L9.44875 21.7087C9.46258 22.1749 9.78718 22.4761 10.2608 22.4761ZM13.7128 22.4761C14.1982 22.4761 14.5399 22.1674 14.5399 21.7109V9.42397C14.5399 8.96741 14.1982 8.65663 13.7128 8.65663C13.2253 8.65663 12.8932 8.96741 12.8932 9.42397V21.7109C12.8932 22.1674 13.2253 22.4761 13.7128 22.4761ZM17.1721 22.4761C17.6383 22.4761 17.9608 22.1749 17.9746 21.7087L18.3241 9.42819C18.3358 8.96952 18.0196 8.65663 17.53 8.65663C17.0575 8.65663 16.735 8.95991 16.7212 9.42608L16.3718 21.7024C16.36 22.1632 16.6783 22.4761 17.1721 22.4761ZM8.38891 5.39133H10.5517V2.95734C10.5517 2.35054 10.9762 1.96124 11.6287 1.96124H15.7755C16.428 1.96124 16.8525 2.35054 16.8525 2.95734V5.39133H19.0153V2.84859C19.0153 1.05656 17.8715 0 15.9297 0H11.4744C9.53266 0 8.38891 1.05656 8.38891 2.84859V5.39133Z" fill="#91A3B0"/>
</svg>
